<mxfile host="app.diagrams.net" modified="2021-03-18T04:57:51.508Z" agent="5.0 (Windows)" etag="rJDqtFJpL9eElmOEXnEm" version="14.4.2" type="github">
  <diagram id="TiC0w1Ht3yhiNNbJjkEy" name="Page-1">
    <mxGraphModel dx="1278" dy="575" grid="1" gridSize="10" guides="1" tooltips="1" connect="1" arrows="1" fold="1" page="1" pageScale="1" pageWidth="1169" pageHeight="827" math="0" shadow="0">
      <root>
        <mxCell id="0" />
        <mxCell id="1" parent="0" />
        <mxCell id="TR7oBmUhaJ_W7H3ZalQH-2" value="Project 1" style="pointerEvents=1;shadow=1;dashed=0;html=1;strokeColor=#1A1A1A;labelPosition=center;verticalLabelPosition=bottom;verticalAlign=top;outlineConnect=0;align=center;shape=mxgraph.office.concepts.folder;fillColor=#000000;" vertex="1" parent="1">
          <mxGeometry x="40" y="30.339999999999996" width="80" height="69.31" as="geometry" />
        </mxCell>
        <mxCell id="TR7oBmUhaJ_W7H3ZalQH-4" value="&lt;div&gt;Input from customer &lt;br&gt;&lt;/div&gt;&lt;div&gt;(requirement)&lt;/div&gt;" style="pointerEvents=1;shadow=0;dashed=0;html=1;strokeColor=none;fillColor=#505050;labelPosition=center;verticalLabelPosition=bottom;verticalAlign=top;outlineConnect=0;align=center;shape=mxgraph.office.concepts.folder;" vertex="1" parent="1">
          <mxGeometry x="50" y="220" width="60" height="50" as="geometry" />
        </mxCell>
        <mxCell id="TR7oBmUhaJ_W7H3ZalQH-8" value="Internal (DZ Create Doc)" style="aspect=fixed;html=1;points=[];align=center;image;fontSize=12;image=img/lib/azure2/general/Folder_Blank.svg;" vertex="1" parent="1">
          <mxGeometry x="47.569999999999936" y="360" width="60" height="48.7" as="geometry" />
        </mxCell>
        <mxCell id="TR7oBmUhaJ_W7H3ZalQH-15" value="Output" style="aspect=fixed;html=1;points=[];align=center;image;fontSize=12;image=img/lib/azure2/general/Folder_Blank.svg;" vertex="1" parent="1">
          <mxGeometry x="48.74000000000001" y="451" width="63.69" height="51.69" as="geometry" />
        </mxCell>
        <mxCell id="TR7oBmUhaJ_W7H3ZalQH-31" value="" style="group" vertex="1" connectable="0" parent="1">
          <mxGeometry x="610" y="80" width="332.78999999999996" height="382" as="geometry" />
        </mxCell>
        <mxCell id="TR7oBmUhaJ_W7H3ZalQH-9" value="SW UAT Doc" style="aspect=fixed;pointerEvents=1;shadow=0;dashed=0;html=1;strokeColor=none;labelPosition=center;verticalLabelPosition=bottom;verticalAlign=top;align=center;fillColor=#00188D;shape=mxgraph.mscae.enterprise.folder" vertex="1" parent="TR7oBmUhaJ_W7H3ZalQH-31">
          <mxGeometry x="270" y="202" width="62.79" height="54" as="geometry" />
        </mxCell>
        <mxCell id="TR7oBmUhaJ_W7H3ZalQH-10" value="SW Deploy Doc" style="pointerEvents=1;shadow=0;dashed=0;html=1;strokeColor=none;labelPosition=center;verticalLabelPosition=bottom;verticalAlign=top;outlineConnect=0;align=center;shape=mxgraph.office.concepts.folder;fillColor=#7FBA42;" vertex="1" parent="TR7oBmUhaJ_W7H3ZalQH-31">
          <mxGeometry x="271.74" y="293" width="60" height="51" as="geometry" />
        </mxCell>
        <mxCell id="TR7oBmUhaJ_W7H3ZalQH-11" value="SW SIT Doc" style="pointerEvents=1;shadow=0;dashed=0;html=1;strokeColor=none;labelPosition=center;verticalLabelPosition=bottom;verticalAlign=top;outlineConnect=0;align=center;shape=mxgraph.office.concepts.folder;fillColor=#DA4026;" vertex="1" parent="TR7oBmUhaJ_W7H3ZalQH-31">
          <mxGeometry x="272.26" y="92" width="58.26" height="51" as="geometry" />
        </mxCell>
        <mxCell id="TR7oBmUhaJ_W7H3ZalQH-26" style="edgeStyle=orthogonalEdgeStyle;rounded=0;orthogonalLoop=1;jettySize=auto;html=1;" edge="1" parent="TR7oBmUhaJ_W7H3ZalQH-31" source="TR7oBmUhaJ_W7H3ZalQH-12" target="TR7oBmUhaJ_W7H3ZalQH-11">
          <mxGeometry relative="1" as="geometry">
            <Array as="points">
              <mxPoint x="160" y="31" />
              <mxPoint x="160" y="121" />
            </Array>
          </mxGeometry>
        </mxCell>
        <mxCell id="TR7oBmUhaJ_W7H3ZalQH-27" style="edgeStyle=orthogonalEdgeStyle;rounded=0;orthogonalLoop=1;jettySize=auto;html=1;entryX=0.016;entryY=0.654;entryDx=0;entryDy=0;entryPerimeter=0;" edge="1" parent="TR7oBmUhaJ_W7H3ZalQH-31" source="TR7oBmUhaJ_W7H3ZalQH-12" target="TR7oBmUhaJ_W7H3ZalQH-9">
          <mxGeometry relative="1" as="geometry">
            <Array as="points">
              <mxPoint x="160" y="31" />
              <mxPoint x="160" y="237" />
            </Array>
          </mxGeometry>
        </mxCell>
        <mxCell id="TR7oBmUhaJ_W7H3ZalQH-28" style="edgeStyle=orthogonalEdgeStyle;rounded=0;orthogonalLoop=1;jettySize=auto;html=1;" edge="1" parent="TR7oBmUhaJ_W7H3ZalQH-31" source="TR7oBmUhaJ_W7H3ZalQH-12" target="TR7oBmUhaJ_W7H3ZalQH-10">
          <mxGeometry relative="1" as="geometry">
            <Array as="points">
              <mxPoint x="160" y="31" />
              <mxPoint x="160" y="318" />
            </Array>
          </mxGeometry>
        </mxCell>
        <mxCell id="TR7oBmUhaJ_W7H3ZalQH-12" value="Ticket No (1..n)" style="aspect=fixed;html=1;points=[];align=center;image;fontSize=12;image=img/lib/azure2/general/Folder_Blank.svg;" vertex="1" parent="TR7oBmUhaJ_W7H3ZalQH-31">
          <mxGeometry y="6.310000000000002" width="61.61" height="50" as="geometry" />
        </mxCell>
        <mxCell id="TR7oBmUhaJ_W7H3ZalQH-13" value="Dev Doc" style="pointerEvents=1;shadow=0;dashed=0;html=1;strokeColor=none;labelPosition=center;verticalLabelPosition=bottom;verticalAlign=top;outlineConnect=0;align=center;shape=mxgraph.office.concepts.folder;fillColor=#2072B8;" vertex="1" parent="TR7oBmUhaJ_W7H3ZalQH-31">
          <mxGeometry x="272.26" width="58.26" height="51" as="geometry" />
        </mxCell>
        <mxCell id="TR7oBmUhaJ_W7H3ZalQH-25" style="edgeStyle=orthogonalEdgeStyle;rounded=0;orthogonalLoop=1;jettySize=auto;html=1;" edge="1" parent="TR7oBmUhaJ_W7H3ZalQH-31" source="TR7oBmUhaJ_W7H3ZalQH-12" target="TR7oBmUhaJ_W7H3ZalQH-13">
          <mxGeometry relative="1" as="geometry">
            <Array as="points">
              <mxPoint x="40" y="31.310000000000002" />
              <mxPoint x="40" y="31.310000000000002" />
            </Array>
          </mxGeometry>
        </mxCell>
        <mxCell id="TR7oBmUhaJ_W7H3ZalQH-55" value="" style="group" vertex="1" connectable="0" parent="TR7oBmUhaJ_W7H3ZalQH-31">
          <mxGeometry x="-19.190000000000055" y="92" width="100.00000000000006" height="290" as="geometry" />
        </mxCell>
        <mxCell id="TR7oBmUhaJ_W7H3ZalQH-54" style="edgeStyle=orthogonalEdgeStyle;rounded=0;orthogonalLoop=1;jettySize=auto;html=1;" edge="1" parent="TR7oBmUhaJ_W7H3ZalQH-55" source="TR7oBmUhaJ_W7H3ZalQH-48">
          <mxGeometry relative="1" as="geometry">
            <mxPoint x="50.00000000000006" y="200" as="targetPoint" />
          </mxGeometry>
        </mxCell>
        <mxCell id="TR7oBmUhaJ_W7H3ZalQH-48" value="&lt;div&gt;PCI Doc&lt;/div&gt;&lt;div&gt;(Optional)&lt;br&gt;&lt;/div&gt;" style="strokeWidth=2;html=1;shape=mxgraph.flowchart.document2;whiteSpace=wrap;size=0.25;shadow=1;fillColor=#999999;" vertex="1" parent="TR7oBmUhaJ_W7H3ZalQH-55">
          <mxGeometry x="5.684341886080802e-14" y="230" width="100" height="60" as="geometry" />
        </mxCell>
        <mxCell id="TR7oBmUhaJ_W7H3ZalQH-52" style="edgeStyle=orthogonalEdgeStyle;rounded=0;orthogonalLoop=1;jettySize=auto;html=1;" edge="1" parent="TR7oBmUhaJ_W7H3ZalQH-55" source="TR7oBmUhaJ_W7H3ZalQH-44">
          <mxGeometry relative="1" as="geometry">
            <mxPoint x="50.00000000000006" as="targetPoint" />
          </mxGeometry>
        </mxCell>
        <mxCell id="TR7oBmUhaJ_W7H3ZalQH-44" value="SW requirement" style="strokeWidth=2;html=1;shape=mxgraph.flowchart.document2;whiteSpace=wrap;size=0.25;shadow=1;fillColor=#FFE359;" vertex="1" parent="TR7oBmUhaJ_W7H3ZalQH-55">
          <mxGeometry y="32" width="100" height="60" as="geometry" />
        </mxCell>
        <mxCell id="TR7oBmUhaJ_W7H3ZalQH-53" style="edgeStyle=orthogonalEdgeStyle;rounded=0;orthogonalLoop=1;jettySize=auto;html=1;" edge="1" parent="TR7oBmUhaJ_W7H3ZalQH-55" source="TR7oBmUhaJ_W7H3ZalQH-45">
          <mxGeometry relative="1" as="geometry">
            <mxPoint x="50.00000000000006" y="100" as="targetPoint" />
          </mxGeometry>
        </mxCell>
        <mxCell id="TR7oBmUhaJ_W7H3ZalQH-45" value="Initial test scenarios" style="strokeWidth=2;html=1;shape=mxgraph.flowchart.document2;whiteSpace=wrap;size=0.25;shadow=1;fillColor=#FFE359;" vertex="1" parent="TR7oBmUhaJ_W7H3ZalQH-55">
          <mxGeometry x="5.684341886080802e-14" y="130" width="100" height="60" as="geometry" />
        </mxCell>
        <mxCell id="TR7oBmUhaJ_W7H3ZalQH-32" value="" style="group" vertex="1" connectable="0" parent="1">
          <mxGeometry x="240" y="30.340000000000003" width="110" height="139.66" as="geometry" />
        </mxCell>
        <mxCell id="TR7oBmUhaJ_W7H3ZalQH-29" value="" style="html=1;aspect=fixed;strokeColor=none;shadow=0;align=center;verticalAlign=top;fillColor=#3B8DF1;shape=mxgraph.gcp2.lifecycle" vertex="1" parent="TR7oBmUhaJ_W7H3ZalQH-32">
          <mxGeometry width="103.98332216514035" height="103.98332216514035" as="geometry" />
        </mxCell>
        <mxCell id="TR7oBmUhaJ_W7H3ZalQH-30" value="Software Doc" style="text;align=center;fontStyle=1;verticalAlign=middle;spacingLeft=3;spacingRight=3;strokeColor=none;rotatable=0;points=[[0,0.5],[1,0.5]];portConstraint=eastwest;shadow=1;fillColor=#FFE359;" vertex="1" parent="TR7oBmUhaJ_W7H3ZalQH-32">
          <mxGeometry x="11" y="112.62433623706352" width="88" height="27.03566376293649" as="geometry" />
        </mxCell>
        <mxCell id="TR7oBmUhaJ_W7H3ZalQH-37" style="edgeStyle=orthogonalEdgeStyle;rounded=0;orthogonalLoop=1;jettySize=auto;html=1;" edge="1" parent="1">
          <mxGeometry relative="1" as="geometry">
            <mxPoint x="520" y="82" as="targetPoint" />
            <mxPoint x="370" y="82" as="sourcePoint" />
            <Array as="points">
              <mxPoint x="480" y="82" />
              <mxPoint x="480" y="82" />
            </Array>
          </mxGeometry>
        </mxCell>
        <mxCell id="TR7oBmUhaJ_W7H3ZalQH-39" style="edgeStyle=orthogonalEdgeStyle;rounded=0;orthogonalLoop=1;jettySize=auto;html=1;" edge="1" parent="1" source="TR7oBmUhaJ_W7H3ZalQH-38">
          <mxGeometry relative="1" as="geometry">
            <mxPoint x="300" y="180" as="targetPoint" />
          </mxGeometry>
        </mxCell>
        <mxCell id="TR7oBmUhaJ_W7H3ZalQH-38" value="&lt;div&gt;SW flow overall&lt;br&gt;&lt;/div&gt;" style="strokeWidth=2;html=1;shape=mxgraph.flowchart.document2;whiteSpace=wrap;size=0.25;shadow=1;fillColor=#FFE359;" vertex="1" parent="1">
          <mxGeometry x="250" y="230" width="100" height="60" as="geometry" />
        </mxCell>
        <mxCell id="TR7oBmUhaJ_W7H3ZalQH-41" style="edgeStyle=orthogonalEdgeStyle;rounded=0;orthogonalLoop=1;jettySize=auto;html=1;" edge="1" parent="1" source="TR7oBmUhaJ_W7H3ZalQH-40" target="TR7oBmUhaJ_W7H3ZalQH-38">
          <mxGeometry relative="1" as="geometry" />
        </mxCell>
        <mxCell id="TR7oBmUhaJ_W7H3ZalQH-40" value="Production work flow" style="strokeWidth=2;html=1;shape=mxgraph.flowchart.document2;whiteSpace=wrap;size=0.25;shadow=1;fillColor=#FFE359;" vertex="1" parent="1">
          <mxGeometry x="250" y="348.7" width="100" height="60" as="geometry" />
        </mxCell>
        <mxCell id="TR7oBmUhaJ_W7H3ZalQH-43" style="edgeStyle=orthogonalEdgeStyle;rounded=0;orthogonalLoop=1;jettySize=auto;html=1;" edge="1" parent="1" source="TR7oBmUhaJ_W7H3ZalQH-42">
          <mxGeometry relative="1" as="geometry">
            <mxPoint x="301" y="410" as="targetPoint" />
          </mxGeometry>
        </mxCell>
        <mxCell id="TR7oBmUhaJ_W7H3ZalQH-42" value="Concern issues" style="strokeWidth=2;html=1;shape=mxgraph.flowchart.document2;whiteSpace=wrap;size=0.25;shadow=1;fillColor=#FFE359;" vertex="1" parent="1">
          <mxGeometry x="251" y="460" width="100" height="60" as="geometry" />
        </mxCell>
        <mxCell id="TR7oBmUhaJ_W7H3ZalQH-46" value="&lt;div&gt;Issue log&lt;/div&gt;&lt;div&gt;(keep update)&lt;/div&gt;&lt;div&gt;&lt;br&gt;&lt;/div&gt;" style="strokeWidth=2;html=1;shape=mxgraph.flowchart.document2;whiteSpace=wrap;size=0.25;shadow=1;fillColor=#FFE359;" vertex="1" parent="1">
          <mxGeometry x="1050" y="190" width="100" height="60" as="geometry" />
        </mxCell>
        <mxCell id="TR7oBmUhaJ_W7H3ZalQH-47" value="&lt;div&gt;Test result&lt;/div&gt;&lt;div&gt;(As test scenario &amp;amp; more)&lt;/div&gt;&lt;div&gt;&lt;br&gt;&lt;/div&gt;" style="strokeWidth=2;html=1;shape=mxgraph.flowchart.document2;whiteSpace=wrap;size=0.25;shadow=1;fillColor=#FFE359;" vertex="1" parent="1">
          <mxGeometry x="1050" y="90" width="100" height="70" as="geometry" />
        </mxCell>
        <mxCell id="TR7oBmUhaJ_W7H3ZalQH-59" style="edgeStyle=orthogonalEdgeStyle;rounded=0;orthogonalLoop=1;jettySize=auto;html=1;" edge="1" parent="1" source="TR7oBmUhaJ_W7H3ZalQH-57">
          <mxGeometry relative="1" as="geometry">
            <mxPoint x="912" y="450" as="targetPoint" />
          </mxGeometry>
        </mxCell>
        <mxCell id="TR7oBmUhaJ_W7H3ZalQH-57" value="&lt;div&gt;User manual&lt;/div&gt;&lt;div&gt;(optional)&lt;br&gt;&lt;/div&gt;" style="strokeWidth=2;html=1;shape=mxgraph.flowchart.document2;whiteSpace=wrap;size=0.25;shadow=1;fillColor=#CCCCCC;" vertex="1" parent="1">
          <mxGeometry x="750" y="510" width="100" height="60" as="geometry" />
        </mxCell>
        <mxCell id="TR7oBmUhaJ_W7H3ZalQH-60" style="edgeStyle=orthogonalEdgeStyle;rounded=0;orthogonalLoop=1;jettySize=auto;html=1;" edge="1" parent="1" source="TR7oBmUhaJ_W7H3ZalQH-58">
          <mxGeometry relative="1" as="geometry">
            <mxPoint x="912" y="450" as="targetPoint" />
          </mxGeometry>
        </mxCell>
        <mxCell id="TR7oBmUhaJ_W7H3ZalQH-58" value="&lt;div&gt;Deploy manual&lt;/div&gt;&lt;div&gt;(optional)&lt;br&gt;&lt;/div&gt;" style="strokeWidth=2;html=1;shape=mxgraph.flowchart.document2;whiteSpace=wrap;size=0.25;shadow=1;fillColor=#CCCCCC;" vertex="1" parent="1">
          <mxGeometry x="970" y="510" width="100" height="60" as="geometry" />
        </mxCell>
      </root>
    </mxGraphModel>
  </diagram>
</mxfile>
